<?xml version="1.0" encoding="UTF-8"?>
<?xml-stylesheet href="https://cdnjs.cloudflare.com/ajax/libs/font-awesome/6.6.0/css/all.min.css" type="text/css"?>
<svg aria-roledescription="gitGraph" role="graphics-document document" viewBox="-200.125 -34.95000076293945 1058.125 644.926025390625" style="max-width: 100%;" xmlns="http://www.w3.org/2000/svg" width="100%" id="graph-div" height="100%" xmlns:xlink="http://www.w3.org/1999/xlink"><style>#graph-div{font-family:"trebuchet ms",verdana,arial,sans-serif;font-size:16px;fill:#333;}#graph-div .error-icon{fill:hsl(220.5882352941, 100%, 98.3333333333%);}#graph-div .error-text{fill:rgb(8.5000000002, 5.7500000001, 0);stroke:rgb(8.5000000002, 5.7500000001, 0);}#graph-div .edge-thickness-normal{stroke-width:1px;}#graph-div .edge-thickness-thick{stroke-width:3.5px;}#graph-div .edge-pattern-solid{stroke-dasharray:0;}#graph-div .edge-thickness-invisible{stroke-width:0;fill:none;}#graph-div .edge-pattern-dashed{stroke-dasharray:3;}#graph-div .edge-pattern-dotted{stroke-dasharray:2;}#graph-div .marker{fill:#0b0b0b;stroke:#0b0b0b;}#graph-div .marker.cross{stroke:#0b0b0b;}#graph-div svg{font-family:"trebuchet ms",verdana,arial,sans-serif;font-size:16px;}#graph-div p{margin:0;}#graph-div .commit-id,#graph-div .commit-msg,#graph-div .branch-label{fill:lightgrey;color:lightgrey;font-family:'trebuchet ms',verdana,arial,sans-serif;font-family:var(--mermaid-font-family);}#graph-div .branch-label0{fill:#333;}#graph-div .commit0{stroke:hsl(40.5882352941, 100%, 68.3333333333%);fill:hsl(40.5882352941, 100%, 68.3333333333%);}#graph-div .commit-highlight0{stroke:rgb(0, 52.2500000001, 161.5000000002);fill:rgb(0, 52.2500000001, 161.5000000002);}#graph-div .label0{fill:hsl(40.5882352941, 100%, 68.3333333333%);}#graph-div .arrow0{stroke:hsl(40.5882352941, 100%, 68.3333333333%);}#graph-div .branch-label1{fill:#333;}#graph-div .commit1{stroke:hsl(-79.4117647059, 100%, 68.3333333333%);fill:hsl(-79.4117647059, 100%, 68.3333333333%);}#graph-div .commit-highlight1{stroke:rgb(52.2500000001, 161.5000000002, 0);fill:rgb(52.2500000001, 161.5000000002, 0);}#graph-div .label1{fill:hsl(-79.4117647059, 100%, 68.3333333333%);}#graph-div .arrow1{stroke:hsl(-79.4117647059, 100%, 68.3333333333%);}#graph-div .branch-label2{fill:#333;}#graph-div .commit2{stroke:hsl(220.5882352941, 100%, 73.3333333333%);fill:hsl(220.5882352941, 100%, 73.3333333333%);}#graph-div .commit-highlight2{stroke:rgb(136.0000000002, 92.0000000001, 0);fill:rgb(136.0000000002, 92.0000000001, 0);}#graph-div .label2{fill:hsl(220.5882352941, 100%, 73.3333333333%);}#graph-div .arrow2{stroke:hsl(220.5882352941, 100%, 73.3333333333%);}#graph-div .branch-label3{fill:#333;}#graph-div .commit3{stroke:hsl(10.5882352941, 100%, 68.3333333333%);fill:hsl(10.5882352941, 100%, 68.3333333333%);}#graph-div .commit-highlight3{stroke:rgb(0, 133.0000000002, 161.5000000002);fill:rgb(0, 133.0000000002, 161.5000000002);}#graph-div .label3{fill:hsl(10.5882352941, 100%, 68.3333333333%);}#graph-div .arrow3{stroke:hsl(10.5882352941, 100%, 68.3333333333%);}#graph-div .branch-label4{fill:#333;}#graph-div .commit4{stroke:hsl(-19.4117647059, 100%, 68.3333333333%);fill:hsl(-19.4117647059, 100%, 68.3333333333%);}#graph-div .commit-highlight4{stroke:rgb(0, 161.5000000002, 109.2500000001);fill:rgb(0, 161.5000000002, 109.2500000001);}#graph-div .label4{fill:hsl(-19.4117647059, 100%, 68.3333333333%);}#graph-div .arrow4{stroke:hsl(-19.4117647059, 100%, 68.3333333333%);}#graph-div .branch-label5{fill:#333;}#graph-div .commit5{stroke:hsl(-49.4117647059, 100%, 68.3333333333%);fill:hsl(-49.4117647059, 100%, 68.3333333333%);}#graph-div .commit-highlight5{stroke:rgb(0, 161.5000000002, 28.5);fill:rgb(0, 161.5000000002, 28.5);}#graph-div .label5{fill:hsl(-49.4117647059, 100%, 68.3333333333%);}#graph-div .arrow5{stroke:hsl(-49.4117647059, 100%, 68.3333333333%);}#graph-div .branch-label6{fill:#333;}#graph-div .commit6{stroke:hsl(100.5882352941, 100%, 68.3333333333%);fill:hsl(100.5882352941, 100%, 68.3333333333%);}#graph-div .commit-highlight6{stroke:rgb(109.2500000001, 0, 161.5000000002);fill:rgb(109.2500000001, 0, 161.5000000002);}#graph-div .label6{fill:hsl(100.5882352941, 100%, 68.3333333333%);}#graph-div .arrow6{stroke:hsl(100.5882352941, 100%, 68.3333333333%);}#graph-div .branch-label7{fill:#333;}#graph-div .commit7{stroke:hsl(160.5882352941, 100%, 68.3333333333%);fill:hsl(160.5882352941, 100%, 68.3333333333%);}#graph-div .commit-highlight7{stroke:rgb(161.5000000002, 0, 52.2500000001);fill:rgb(161.5000000002, 0, 52.2500000001);}#graph-div .label7{fill:hsl(160.5882352941, 100%, 68.3333333333%);}#graph-div .arrow7{stroke:hsl(160.5882352941, 100%, 68.3333333333%);}#graph-div .branch{stroke-width:1;stroke:#0b0b0b;stroke-dasharray:2;}#graph-div .commit-label{font-size:10px;fill:rgb(11.0000000001, 34.0000000002, 0);}#graph-div .commit-label-bkg{font-size:10px;fill:hsl(-79.4117647059, 100%, 93.3333333333%);opacity:0.5;}#graph-div .tag-label{font-size:10px;fill:#333;}#graph-div .tag-label-bkg{fill:#fff4dd;stroke:hsl(40.5882352941, 60%, 83.3333333333%);}#graph-div .tag-hole{fill:#333;}#graph-div .commit-merge{stroke:#fff4dd;fill:#fff4dd;}#graph-div .commit-reverse{stroke:#fff4dd;fill:#fff4dd;stroke-width:3;}#graph-div .commit-highlight-inner{stroke:#fff4dd;fill:#fff4dd;}#graph-div .arrow{stroke-width:8;stroke-linecap:round;fill:none;}#graph-div .gitTitleText{text-anchor:middle;font-size:18px;fill:#333;}#graph-div :root{--mermaid-font-family:"trebuchet ms",verdana,arial,sans-serif;}</style><g></g><g class="commit-bullets"></g><g class="commit-labels"></g><g><line class="branch branch0" y2="0" x2="850" y1="0" x1="0"></line><rect transform="translate(-19, -9.25)" height="22.5" width="52.9921875" y="-1.25" x="-68.9921875" ry="4" rx="4" class="branchLabelBkg label0"></rect><g class="branchLabel"><g transform="translate(-78.9921875, -10.25)" class="label branch-label0"><text><tspan class="row" x="0" dy="1em" xml:space="preserve">main</tspan></text></g></g><line class="branch branch1" y2="90" x2="850" y1="90" x1="0"></line><rect transform="translate(-19, 80.75)" height="22.5" width="74.421875" y="-1.25" x="-90.421875" ry="4" rx="4" class="branchLabelBkg label1"></rect><g class="branchLabel"><g transform="translate(-100.421875, 79.75)" class="label branch-label1"><text><tspan class="row" x="0" dy="1em" xml:space="preserve">develop</tspan></text></g></g><line class="branch branch2" y2="180" x2="850" y1="180" x1="0"></line><rect transform="translate(-19, 170.75)" height="22.5" width="111.703125" y="-1.25" x="-127.703125" ry="4" rx="4" class="branchLabelBkg label2"></rect><g class="branchLabel"><g transform="translate(-137.703125, 169.75)" class="label branch-label2"><text><tspan class="row" x="0" dy="1em" xml:space="preserve">feature/auth</tspan></text></g></g><line class="branch branch3" y2="270" x2="850" y1="270" x1="0"></line><rect transform="translate(-19, 260.75)" height="22.5" width="101.3515625" y="-1.25" x="-117.3515625" ry="4" rx="4" class="branchLabelBkg label3"></rect><g class="branchLabel"><g transform="translate(-127.3515625, 259.75)" class="label branch-label3"><text><tspan class="row" x="0" dy="1em" xml:space="preserve">feature/api</tspan></text></g></g><line class="branch branch4" y2="360" x2="850" y1="360" x1="0"></line><rect transform="translate(-19, 350.75)" height="22.5" width="108.8828125" y="-1.25" x="-124.8828125" ry="4" rx="4" class="branchLabelBkg label4"></rect><g class="branchLabel"><g transform="translate(-134.8828125, 349.75)" class="label branch-label4"><text><tspan class="row" x="0" dy="1em" xml:space="preserve">release/v1.0</tspan></text></g></g><line class="branch branch5" y2="450" x2="850" y1="450" x1="0"></line><rect transform="translate(-19, 440.75)" height="22.5" width="125.4375" y="-1.25" x="-141.4375" ry="4" rx="4" class="branchLabelBkg label5"></rect><g class="branchLabel"><g transform="translate(-151.4375, 439.75)" class="label branch-label5"><text><tspan class="row" x="0" dy="1em" xml:space="preserve">hotfix/security</tspan></text></g></g><line class="branch branch6" y2="540" x2="850" y1="540" x1="0"></line><rect transform="translate(-19, 530.75)" height="22.5" width="157.125" y="-1.25" x="-173.125" ry="4" rx="4" class="branchLabelBkg label6"></rect><g class="branchLabel"><g transform="translate(-183.125, 529.75)" class="label branch-label6"><text><tspan class="row" x="0" dy="1em" xml:space="preserve">feature/monitoring</tspan></text></g></g></g><g class="commit-arrows"><path class="arrow arrow1" d="M 10 0 L 10 70 A 20 20, 0, 0, 0, 30 90 L 60 90"></path><path class="arrow arrow2" d="M 60 90 L 60 160 A 20 20, 0, 0, 0, 80 180 L 110 180"></path><path class="arrow arrow2" d="M 110 180 L 160 180"></path><path class="arrow arrow1" d="M 60 90 L 210 90"></path><path class="arrow arrow2" d="M 160 180 L 190 180 A 20 20, 0, 0, 0, 210 160 L 210 90"></path><path class="arrow arrow3" d="M 210 90 L 210 250 A 20 20, 0, 0, 0, 230 270 L 260 270"></path><path class="arrow arrow3" d="M 260 270 L 310 270"></path><path class="arrow arrow1" d="M 210 90 L 360 90"></path><path class="arrow arrow3" d="M 310 270 L 340 270 A 20 20, 0, 0, 0, 360 250 L 360 90"></path><path class="arrow arrow4" d="M 360 90 L 360 340 A 20 20, 0, 0, 0, 380 360 L 410 360"></path><path class="arrow arrow4" d="M 410 360 L 460 360"></path><path class="arrow arrow0" d="M 10 0 L 510 0"></path><path class="arrow arrow4" d="M 460 360 L 490 360 A 20 20, 0, 0, 0, 510 340 L 510 0"></path><path class="arrow arrow1" d="M 360 90 L 560 90"></path><path class="arrow arrow4" d="M 460 360 L 540 360 A 20 20, 0, 0, 0, 560 340 L 560 90"></path><path class="arrow arrow5" d="M 560 90 L 560 430 A 20 20, 0, 0, 0, 580 450 L 610 450"></path><path class="arrow arrow0" d="M 510 0 L 660 0"></path><path class="arrow arrow5" d="M 610 450 L 640 450 A 20 20, 0, 0, 0, 660 430 L 660 0"></path><path class="arrow arrow1" d="M 560 90 L 710 90"></path><path class="arrow arrow5" d="M 610 450 L 690 450 A 20 20, 0, 0, 0, 710 430 L 710 90"></path><path class="arrow arrow6" d="M 710 90 L 710 520 A 20 20, 0, 0, 0, 730 540 L 760 540"></path><path class="arrow arrow1" d="M 710 90 L 810 90"></path><path class="arrow arrow6" d="M 760 540 L 790 540 A 20 20, 0, 0, 0, 810 520 L 810 90"></path></g><g class="commit-bullets"><circle class="commit init commit0" r="10" cy="0" cx="10"></circle><circle class="commit setup-project commit1" r="10" cy="90" cx="60"></circle><circle class="commit add-login commit2" r="10" cy="180" cx="110"></circle><circle class="commit add-register commit2" r="10" cy="180" cx="160"></circle><circle class="commit 4-badb518 commit1" r="9" cy="90" cx="210"></circle><circle class="commit commit-merge 4-badb518 commit1" r="6" cy="90" cx="210"></circle><circle class="commit core-api commit3" r="10" cy="270" cx="260"></circle><circle class="commit endpoints commit3" r="10" cy="270" cx="310"></circle><circle class="commit 7-830c871 commit1" r="9" cy="90" cx="360"></circle><circle class="commit commit-merge 7-830c871 commit1" r="6" cy="90" cx="360"></circle><circle class="commit version-bump commit4" r="10" cy="360" cx="410"></circle><circle class="commit fix-bugs commit4" r="10" cy="360" cx="460"></circle><circle class="commit 10-fdf2062 commit0" r="9" cy="0" cx="510"></circle><circle class="commit commit-merge 10-fdf2062 commit0" r="6" cy="0" cx="510"></circle><circle class="commit 11-1e78f58 commit1" r="9" cy="90" cx="560"></circle><circle class="commit commit-merge 11-1e78f58 commit1" r="6" cy="90" cx="560"></circle><circle class="commit fix-vulnerability commit5" r="10" cy="450" cx="610"></circle><circle class="commit 13-f790ff0 commit0" r="9" cy="0" cx="660"></circle><circle class="commit commit-merge 13-f790ff0 commit0" r="6" cy="0" cx="660"></circle><circle class="commit 14-f51725e commit1" r="9" cy="90" cx="710"></circle><circle class="commit commit-merge 14-f51725e commit1" r="6" cy="90" cx="710"></circle><circle class="commit add-metrics commit6" r="10" cy="540" cx="760"></circle><circle class="commit 16-4bd39a5 commit1" r="9" cy="90" cx="810"></circle><circle class="commit commit-merge 16-4bd39a5 commit1" r="6" cy="90" cx="810"></circle></g><g class="commit-labels"><g transform="translate(-17.05046875, 15.14515625) rotate(-45, 0, 0)"><rect height="15.5" width="19.1328125" y="13.5" x="0.43359375" class="commit-label-bkg"></rect><text class="commit-label" y="25" x="2.43359375">init</text></g><g transform="translate(-34.49484375, 30.75328125) rotate(-45, 50, 90)"><rect height="15.55078125" width="65.0390625" y="103.5" x="27.48046875" class="commit-label-bkg"></rect><text class="commit-label" y="115" x="29.48046875">setup-project</text></g><g transform="translate(-27.153125, 24.184375) rotate(-45, 100, 180)"><rect height="15.55078125" width="45.71875" y="193.5" x="87.140625" class="commit-label-bkg"></rect><text class="commit-label" y="205" x="89.140625">add-login</text></g><g transform="translate(-32.0634375, 28.5778125) rotate(-45, 150, 180)"><rect height="15.55078125" width="58.640625" y="193.5" x="130.6796875" class="commit-label-bkg"></rect><text class="commit-label" y="205" x="132.6796875">add-register</text></g><g transform="translate(-25.36296875, 22.58265625) rotate(-45, 250, 270)"><rect height="15.55078125" width="41.0078125" y="283.5" x="239.49609375" class="commit-label-bkg"></rect><text class="commit-label" y="295" x="241.49609375">core-api</text></g><g transform="translate(-27.92796875, 24.87765625) rotate(-45, 300, 270)"><rect height="15.55078125" width="47.7578125" y="283.5" x="286.12109375" class="commit-label-bkg"></rect><text class="commit-label" y="295" x="288.12109375">endpoints</text></g><g transform="translate(-34.3078125, 30.5859375) rotate(-45, 400, 360)"><rect height="15.55078125" width="64.546875" y="373.5" x="377.7265625" class="commit-label-bkg"></rect><text class="commit-label" y="385" x="379.7265625">version-bump</text></g><g transform="translate(-24.72765625, 22.014218749999998) rotate(-45, 450, 360)"><rect height="15.55078125" width="39.3359375" y="373.5" x="440.33203125" class="commit-label-bkg"></rect><text class="commit-label" y="385" x="442.33203125">fix-bugs</text></g><polygon points="484.01171875,-17.2  
      484.01171875,-21.2
      492.01171875,-26.95
      527.98828125,-26.95
      527.98828125,-11.45
      492.01171875,-11.45" class="tag-label-bkg"></polygon><circle class="tag-hole" r="1.5" cx="488.01171875" cy="-19.2"></circle><text x="496.01171875" class="tag-label" y="-16">v1.0.0</text><g transform="translate(-38.553124999999994, 34.384375) rotate(-45, 600, 450)"><rect height="15.55078125" width="75.71875" y="463.5" x="572.140625" class="commit-label-bkg"></rect><text class="commit-label" y="475" x="574.140625">fix-vulnerability</text></g><polygon points="634.01171875,-17.2  
      634.01171875,-21.2
      642.01171875,-26.95
      677.98828125,-26.95
      677.98828125,-11.45
      642.01171875,-11.45" class="tag-label-bkg"></polygon><circle class="tag-hole" r="1.5" cx="638.01171875" cy="-19.2"></circle><text x="646.01171875" class="tag-label" y="-16">v1.0.1</text><g transform="translate(-31.641875, 28.200625) rotate(-45, 750, 540)"><rect height="15.5" width="57.53125" y="553.5" x="731.234375" class="commit-label-bkg"></rect><text class="commit-label" y="565" x="733.234375">add-metrics</text></g></g></svg>